<svg width="24" height="24" viewBox="0 0 24 24" fill="none" xmlns="http://www.w3.org/2000/svg">
  <path d="M12 0C5.37 0 0 5.37 0 12C0 17.31 3.435 21.795 8.205 23.385C8.805 23.49 9.03 23.115 9.03 22.785C9.03 22.485 9.015 21.585 9.015 20.625C6 21.225 5.31 19.695 5.07 19.065C4.935 18.705 4.365 17.475 3.855 17.175C3.435 16.935 2.85 16.335 3.84 16.32C4.755 16.305 5.385 17.145 5.61 17.52C6.66 19.245 8.295 18.675 9.075 18.345C9.195 17.595 9.495 17.055 9.825 16.725C7.275 16.395 4.62 15.405 4.62 11.355C4.62 10.155 5.055 9.165 5.805 8.355C5.67 8.025 5.25 6.885 5.85 5.385C5.85 5.385 6.825 5.04 9.03 6.465C9.945 6.195 10.965 6.06 11.985 6.06C13.005 6.06 14.025 6.195 14.94 6.465C17.145 5.04 18.12 5.385 18.12 5.385C18.72 6.885 18.3 8.025 18.165 8.355C18.915 9.165 19.35 10.155 19.35 11.355C19.35 15.42 16.68 16.395 14.13 16.725C14.535 17.115 14.88 17.865 14.88 18.885C14.88 20.325 14.865 22.35 14.865 22.785C14.865 23.115 15.09 23.505 15.705 23.385C20.565 21.795 24 17.31 24 12C24 5.37 18.63 0 12 0Z" fill="#FFFFFF"/>
</svg>